# xmcd CD database file
#
# Track frame offsets:
#	150
#	18865
#	32070
#	51294
#	67197
#	86029
#	102014
#	117198
#	133266
#	148517
#	164767
#	180668
#	195290
#	222082
#	244505
#	259534
#
# Disc length: 3657 seconds
#
# Revision: 0
# Processed by: cddbd v1.5.2PL0 Copyright (c) Steve Scherf et al.
# Submitted via: CDex 1.51
#
DISCID=df0e4710
DTITLE=Brian Crain - One Hour Music - Piano Massage Music
DYEAR=2007
DGENRE=New Age
TTITLE0=Song For Sienna
TTITLE1=Sunrise
TTITLE2=Song Of The Heart
TTITLE3=Moonrise
TTITLE4=A Simple Life
TTITLE5=Gliding Moon
TTITLE6=White Dove
TTITLE7=Night Bird Song
TTITLE8=Morning Light
TTITLE9=Last Light On The Mountain
TTITLE10=Promise
TTITLE11=Innocent Heart
TTITLE12=Northern Sky
TTITLE13=Crimson Sky
TTITLE14=Across The Bay
TTITLE15=White Horse
EXTD=YEAR: 2007
EXTT0=
EXTT1=
EXTT2=
EXTT3=
EXTT4=
EXTT5=
EXTT6=
EXTT7=
EXTT8=
EXTT9=
EXTT10=
EXTT11=
EXTT12=
EXTT13=
EXTT14=
EXTT15=
PLAYORDER=
